<?xml version="1.0" encoding="utf-8"?>
<!-- Generator: Adobe Illustrator 20.0.0, SVG Export Plug-In . SVG Version: 6.00 Build 0)  -->
<svg version="1.1" xmlns="http://www.w3.org/2000/svg" xmlns:xlink="http://www.w3.org/1999/xlink" x="0px" y="0px"
	 viewBox="0 0 1000 1000" style="enable-background:new 0 0 1000 1000;" xml:space="preserve">
<style type="text/css">
	.st0{display:none;}
	.st1{display:inline;fill:url(#SVGID_1_);stroke:#000000;stroke-miterlimit:10;}
	.st2{display:inline;fill:#888A8C;stroke:#000000;stroke-miterlimit:10;}
	.st3{display:inline;fill:none;stroke:#000000;stroke-miterlimit:10;}
	.st4{display:inline;fill:url(#SVGID_2_);stroke:#000000;stroke-miterlimit:10;}
	.st5{display:inline;fill:url(#SVGID_3_);stroke:#000000;stroke-miterlimit:10;}
	.st6{display:inline;fill:url(#SVGID_4_);stroke:#000000;stroke-miterlimit:10;}
	.st7{display:inline;fill:url(#SVGID_5_);stroke:#000000;stroke-miterlimit:10;}
	.st8{display:inline;fill:url(#SVGID_6_);stroke:#000000;stroke-miterlimit:10;}
	.st9{display:inline;stroke:#4A4B4C;stroke-miterlimit:10;}
	.st10{display:inline;fill:#4A4B4C;stroke:#000000;stroke-miterlimit:10;}
	.st11{display:inline;fill:none;stroke:#4A4B4C;stroke-miterlimit:10;}
	.st12{display:inline;fill:#6D6E71;stroke:#000000;stroke-miterlimit:10;}
	.st13{display:inline;}
	.st14{stroke:#4A4B4C;stroke-miterlimit:10;}
	.st15{fill:none;stroke:#4A4B4C;stroke-miterlimit:10;}
	.st16{display:inline;fill:#616264;stroke:#000000;stroke-miterlimit:10;}
	.st17{fill:url(#SVGID_7_);}
	.st18{fill:url(#SVGID_8_);}
	.st19{fill:url(#SVGID_9_);}
	.st20{fill:url(#SVGID_10_);}
	.st21{fill:url(#SVGID_11_);}
	.st22{fill:url(#SVGID_12_);}
	.st23{fill:url(#SVGID_13_);}
	.st24{fill:url(#SVGID_14_);}
	.st25{fill:url(#SVGID_15_);}
	.st26{fill:url(#SVGID_16_);}
	.st27{fill:url(#SVGID_17_);}
	.st28{fill:url(#SVGID_18_);}
	.st29{fill:url(#SVGID_19_);}
	.st30{fill:url(#SVGID_20_);}
	.st31{fill:url(#SVGID_21_);}
	.st32{fill:url(#SVGID_22_);}
	.st33{fill:url(#SVGID_23_);}
	.st34{fill:url(#SVGID_24_);}
	.st35{fill:url(#SVGID_25_);}
	.st36{fill:url(#SVGID_26_);}
	.st37{fill:url(#SVGID_27_);}
	.st38{fill:url(#SVGID_28_);}
	.st39{fill:url(#SVGID_29_);}
	.st40{fill:url(#SVGID_30_);}
	.st41{fill:url(#SVGID_31_);}
	.st42{fill:url(#SVGID_32_);}
	.st43{fill:url(#SVGID_33_);}
	.st44{fill:url(#SVGID_34_);}
	.st45{fill:url(#SVGID_35_);}
	.st46{fill:url(#SVGID_36_);}
	.st47{fill:url(#SVGID_37_);}
	.st48{fill:url(#SVGID_38_);}
	.st49{display:inline;fill:url(#SVGID_39_);stroke:#000000;stroke-miterlimit:10;}
</style>
<g id="Layer_2" class="st0">
	<linearGradient id="SVGID_1_" gradientUnits="userSpaceOnUse" x1="532.1531" y1="532.1531" x2="468.5135" y2="468.5135">
		<stop  offset="0" style="stop-color:#3D3D3E"/>
		<stop  offset="1" style="stop-color:#6B6C6F"/>
	</linearGradient>
	<circle class="st1" cx="500.3" cy="500.3" r="45"/>
	<circle class="st2" cx="500.3" cy="500.3" r="24.7"/>
	<circle class="st3" cx="500.3" cy="500.3" r="10.8"/>
	<line class="st3" x1="500.3" y1="489.5" x2="500.3" y2="475.7"/>
	<line class="st3" x1="492.7" y1="492.7" x2="482.9" y2="482.9"/>
	<line class="st3" x1="489.5" y1="500.3" x2="475.7" y2="500.3"/>
	<line class="st3" x1="492.7" y1="508" x2="482.9" y2="517.8"/>
	<line class="st3" x1="500.3" y1="511.2" x2="500.3" y2="525"/>
	<line class="st3" x1="508" y1="508" x2="517.8" y2="517.8"/>
	<line class="st3" x1="511.2" y1="500.3" x2="525" y2="500.3"/>
	<line class="st3" x1="508" y1="492.7" x2="517.8" y2="482.9"/>
	<linearGradient id="SVGID_2_" gradientUnits="userSpaceOnUse" x1="611.3333" y1="500.3333" x2="537.648" y2="500.3333">
		<stop  offset="0" style="stop-color:#000000"/>
		<stop  offset="0.2095" style="stop-color:#111111"/>
		<stop  offset="0.4271" style="stop-color:#313032"/>
		<stop  offset="0.6483" style="stop-color:#4C4C4E"/>
		<stop  offset="0.8706" style="stop-color:#656668"/>
		<stop  offset="1" style="stop-color:#757679"/>
	</linearGradient>
	<path class="st4" d="M538,525l55.7-13.8l4.3,15.2L563,567l11.7-4.7l36.7-41.3v-41.3l-36.7-41.3l-11.7-4.7l35,40.7l-4.3,15.2
		L538,475.7l-0.3-0.5c4.9,7.2,7.7,15.8,7.7,25.2C545.3,509.4,542.6,517.9,538,525z"/>
	<linearGradient id="SVGID_3_" gradientUnits="userSpaceOnUse" x1="569.9907" y1="500.3333" x2="569.9907" y2="474.3333">
		<stop  offset="0" style="stop-color:#383839"/>
		<stop  offset="0.4885" style="stop-color:#3C3B3D"/>
		<stop  offset="0.6644" style="stop-color:#444446"/>
		<stop  offset="0.7898" style="stop-color:#4F4F52"/>
		<stop  offset="0.8911" style="stop-color:#5E5F61"/>
		<stop  offset="0.977" style="stop-color:#6F7173"/>
		<stop  offset="1" style="stop-color:#757679"/>
	</linearGradient>
	<path class="st5" d="M545.3,500.3h51l6-10.8v-11.8l-4.3-3.3l-4.3,15.2L538,475.7l-0.3-0.5C542.5,482.4,545.3,491,545.3,500.3z"/>
	<linearGradient id="SVGID_4_" gradientUnits="userSpaceOnUse" x1="389.3333" y1="500.3333" x2="463.0186" y2="500.3333">
		<stop  offset="0" style="stop-color:#000000"/>
		<stop  offset="0.2095" style="stop-color:#111111"/>
		<stop  offset="0.4271" style="stop-color:#313032"/>
		<stop  offset="0.6483" style="stop-color:#4C4C4E"/>
		<stop  offset="0.8706" style="stop-color:#656668"/>
		<stop  offset="1" style="stop-color:#757679"/>
	</linearGradient>
	<path class="st6" d="M462.7,525L407,511.2l-4.3,15.2l35,40.7l-11.7-4.7L389.3,521v-41.3l36.7-41.3l11.7-4.7l-35,40.7l4.3,15.2
		l55.7-13.8l0.3-0.5c-4.9,7.2-7.7,15.8-7.7,25.2C455.3,509.4,458,517.9,462.7,525z"/>
	<linearGradient id="SVGID_5_" gradientUnits="userSpaceOnUse" x1="430.676" y1="500.3333" x2="430.676" y2="474.3333">
		<stop  offset="0" style="stop-color:#383839"/>
		<stop  offset="0.4885" style="stop-color:#3C3B3D"/>
		<stop  offset="0.6644" style="stop-color:#444446"/>
		<stop  offset="0.7898" style="stop-color:#4F4F52"/>
		<stop  offset="0.8911" style="stop-color:#5E5F61"/>
		<stop  offset="0.977" style="stop-color:#6F7173"/>
		<stop  offset="1" style="stop-color:#757679"/>
	</linearGradient>
	<path class="st7" d="M455.3,500.3h-51l-6-10.8v-11.8l4.3-3.3l4.3,15.2l55.7-13.8l0.3-0.5C458.2,482.4,455.3,491,455.3,500.3z"/>
</g>
<g id="Layer_3" class="st0">
	
		<linearGradient id="SVGID_6_" gradientUnits="userSpaceOnUse" x1="1096.9155" y1="500.6667" x2="1162.0845" y2="500.6667" gradientTransform="matrix(-1 0 0 1 1359.5 0)">
		<stop  offset="0" style="stop-color:#6B6C6F"/>
		<stop  offset="1" style="stop-color:#383839"/>
	</linearGradient>
	<circle class="st8" cx="230" cy="500.7" r="32.6"/>
	<polygon class="st9" points="146.3,602.3 164.3,596.7 167.7,500.7 164.3,404.7 146.3,399 142.3,399 140.7,500.7 142.3,602.3 	"/>
	<circle class="st2" cx="227" cy="500.7" r="18.7"/>
	<circle class="st3" cx="227" cy="500.7" r="7.3"/>
	<line class="st3" x1="227" y1="493.3" x2="227" y2="482"/>
	<line class="st3" x1="232.2" y1="495.5" x2="240.2" y2="487.5"/>
	<line class="st3" x1="234.3" y1="500.7" x2="245.7" y2="500.7"/>
	<line class="st3" x1="232.2" y1="505.9" x2="240.2" y2="513.9"/>
	<line class="st3" x1="227" y1="508" x2="227" y2="519.3"/>
	<line class="st3" x1="221.8" y1="505.9" x2="213.8" y2="513.9"/>
	<line class="st3" x1="219.7" y1="500.7" x2="208.3" y2="500.7"/>
	<line class="st3" x1="221.8" y1="495.5" x2="213.8" y2="487.5"/>
	<path class="st10" d="M200.1,487.6c-1.7,4-2.7,8.4-2.7,13c0,4.6,1,9,2.7,13l-18.4-3.8l-3.3-4l-16,2.1l2,88.7L158,528l-11.7,74.3
		l7.6-98.9l-7.5-2.8l7.4-3.5l-7.6-98.2l11.7,74.3l6.3-68.7l-2,88.7l16,2.1l3.3-4L200.1,487.6z"/>
	<polyline class="st11" points="146.3,399 144.7,500.7 146.3,602.3 	"/>
	<path class="st12" d="M293,493.3h-11.5l-23.7-9.2c0,0-2.9,13.9,0,33l23.7-9.2H293"/>
	<g class="st13">
		<polygon class="st14" points="297.7,602.3 315.7,596.7 319.1,500.7 315.7,404.7 297.7,399 293.7,399 292.1,500.7 293.7,602.3 		
			"/>
		<polyline class="st15" points="297.7,399 296.1,500.7 297.7,602.3 		"/>
	</g>
	<polygon class="st16" points="314.5,503 316.5,596.7 310.1,528 298.5,602.3 306.1,503.5 298.6,500.7 306,497.2 298.5,399 
		310.1,473.3 316.5,404.7 314.5,497.3 317.8,500.7 	"/>
	<path class="st3" d="M281.5,493.3c0,0-2.4,5.3,0,14.7"/>
	<path class="st3" d="M162.3,493.3c0,0-3.5,5.8,0,14.7"/>
	<path class="st3" d="M178.3,495.5c0,0-1,0.7,0,10.4"/>
</g>
<g id="Layer_5">
	<radialGradient id="SVGID_7_" cx="520.1854" cy="491.4812" r="30.399" gradientUnits="userSpaceOnUse">
		<stop  offset="0" style="stop-color:#BE1E2D"/>
		<stop  offset="1" style="stop-color:#F7941D"/>
	</radialGradient>
	<circle class="st17" cx="520.2" cy="491.5" r="30.4"/>
	<radialGradient id="SVGID_8_" cx="543.8703" cy="464.0822" r="30.399" gradientUnits="userSpaceOnUse">
		<stop  offset="0" style="stop-color:#BE1E2D"/>
		<stop  offset="1" style="stop-color:#F7941D"/>
	</radialGradient>
	<circle class="st18" cx="543.9" cy="464.1" r="30.4"/>
	<radialGradient id="SVGID_9_" cx="487.9261" cy="464.0822" r="30.399" gradientUnits="userSpaceOnUse">
		<stop  offset="0" style="stop-color:#BE1E2D"/>
		<stop  offset="1" style="stop-color:#F7941D"/>
	</radialGradient>
	<circle class="st19" cx="487.9" cy="464.1" r="30.4"/>
	<radialGradient id="SVGID_10_" cx="474.6667" cy="505.8591" r="30.399" gradientUnits="userSpaceOnUse">
		<stop  offset="0" style="stop-color:#BE1E2D"/>
		<stop  offset="1" style="stop-color:#F7941D"/>
	</radialGradient>
	<circle class="st20" cx="474.7" cy="505.9" r="30.4"/>
	<radialGradient id="SVGID_11_" cx="496.3333" cy="545.7324" r="30.399" gradientUnits="userSpaceOnUse">
		<stop  offset="0" style="stop-color:#BE1E2D"/>
		<stop  offset="1" style="stop-color:#F7941D"/>
	</radialGradient>
	<circle class="st21" cx="496.3" cy="545.7" r="30.4"/>
	<radialGradient id="SVGID_12_" cx="533.6667" cy="529.2512" r="30.399" gradientUnits="userSpaceOnUse">
		<stop  offset="0" style="stop-color:#BE1E2D"/>
		<stop  offset="1" style="stop-color:#F7941D"/>
	</radialGradient>
	<circle class="st22" cx="533.7" cy="529.3" r="30.4"/>
	<radialGradient id="SVGID_13_" cx="564.0657" cy="494.4812" r="30.399" gradientUnits="userSpaceOnUse">
		<stop  offset="0" style="stop-color:#BE1E2D"/>
		<stop  offset="1" style="stop-color:#F7941D"/>
	</radialGradient>
	<circle class="st23" cx="564.1" cy="494.5" r="30.4"/>
	<radialGradient id="SVGID_14_" cx="574.2693" cy="433.6831" r="30.399" gradientUnits="userSpaceOnUse">
		<stop  offset="0" style="stop-color:#BE1E2D"/>
		<stop  offset="1" style="stop-color:#F7941D"/>
	</radialGradient>
	<circle class="st24" cx="574.3" cy="433.7" r="30.4"/>
	<radialGradient id="SVGID_15_" cx="513.4713" cy="425.399" r="30.399" gradientUnits="userSpaceOnUse">
		<stop  offset="0" style="stop-color:#BE1E2D"/>
		<stop  offset="1" style="stop-color:#F7941D"/>
	</radialGradient>
	<circle class="st25" cx="513.5" cy="425.4" r="30.4"/>
	<radialGradient id="SVGID_16_" cx="473.9023" cy="425.399" r="30.399" gradientUnits="userSpaceOnUse">
		<stop  offset="0" style="stop-color:#BE1E2D"/>
		<stop  offset="1" style="stop-color:#F7941D"/>
	</radialGradient>
	<circle class="st26" cx="473.9" cy="425.4" r="30.4"/>
	<radialGradient id="SVGID_17_" cx="449.5648" cy="455.7981" r="30.399" gradientUnits="userSpaceOnUse">
		<stop  offset="0" style="stop-color:#BE1E2D"/>
		<stop  offset="1" style="stop-color:#F7941D"/>
	</radialGradient>
	<circle class="st27" cx="449.6" cy="455.8" r="30.4"/>
	<radialGradient id="SVGID_18_" cx="432.6667" cy="501.8521" r="30.399" gradientUnits="userSpaceOnUse">
		<stop  offset="0" style="stop-color:#BE1E2D"/>
		<stop  offset="1" style="stop-color:#F7941D"/>
	</radialGradient>
	<circle class="st28" cx="432.7" cy="501.9" r="30.4"/>
	<radialGradient id="SVGID_19_" cx="429.8979" cy="545.7324" r="30.399" gradientUnits="userSpaceOnUse">
		<stop  offset="0" style="stop-color:#BE1E2D"/>
		<stop  offset="1" style="stop-color:#F7941D"/>
	</radialGradient>
	<circle class="st29" cx="429.9" cy="545.7" r="30.4"/>
	<radialGradient id="SVGID_20_" cx="450.4756" cy="559.6502" r="30.399" gradientUnits="userSpaceOnUse">
		<stop  offset="0" style="stop-color:#BE1E2D"/>
		<stop  offset="1" style="stop-color:#F7941D"/>
	</radialGradient>
	<circle class="st30" cx="450.5" cy="559.7" r="30.4"/>
	<radialGradient id="SVGID_21_" cx="483.0722" cy="566.6572" r="30.399" gradientUnits="userSpaceOnUse">
		<stop  offset="0" style="stop-color:#BE1E2D"/>
		<stop  offset="1" style="stop-color:#F7941D"/>
	</radialGradient>
	<circle class="st31" cx="483.1" cy="566.7" r="30.4"/>
	<radialGradient id="SVGID_22_" cx="517.8703" cy="559.6502" r="30.399" gradientUnits="userSpaceOnUse">
		<stop  offset="0" style="stop-color:#BE1E2D"/>
		<stop  offset="1" style="stop-color:#F7941D"/>
	</radialGradient>
	<circle class="st32" cx="517.9" cy="559.7" r="30.4"/>
	<radialGradient id="SVGID_23_" cx="550.7294" cy="545.7324" r="30.399" gradientUnits="userSpaceOnUse">
		<stop  offset="0" style="stop-color:#BE1E2D"/>
		<stop  offset="1" style="stop-color:#F7941D"/>
	</radialGradient>
	<circle class="st33" cx="550.7" cy="545.7" r="30.4"/>
	<radialGradient id="SVGID_24_" cx="564.0657" cy="504" r="30.399" gradientUnits="userSpaceOnUse">
		<stop  offset="0" style="stop-color:#BE1E2D"/>
		<stop  offset="1" style="stop-color:#F7941D"/>
	</radialGradient>
	<circle class="st34" cx="564.1" cy="504" r="30.4"/>
	<radialGradient id="SVGID_25_" cx="596.1361" cy="461.0822" r="30.399" gradientUnits="userSpaceOnUse">
		<stop  offset="0" style="stop-color:#BE1E2D"/>
		<stop  offset="1" style="stop-color:#F7941D"/>
	</radialGradient>
	<circle class="st35" cx="596.1" cy="461.1" r="30.4"/>
	<radialGradient id="SVGID_26_" cx="593.5739" cy="403.2841" r="30.399" gradientUnits="userSpaceOnUse">
		<stop  offset="0" style="stop-color:#BE1E2D"/>
		<stop  offset="1" style="stop-color:#F7941D"/>
	</radialGradient>
	<circle class="st36" cx="593.6" cy="403.3" r="30.4"/>
	<radialGradient id="SVGID_27_" cx="425.2676" cy="403.2841" r="30.399" gradientUnits="userSpaceOnUse">
		<stop  offset="0" style="stop-color:#BE1E2D"/>
		<stop  offset="1" style="stop-color:#F7941D"/>
	</radialGradient>
	<circle class="st37" cx="425.3" cy="403.3" r="30.4"/>
	<radialGradient id="SVGID_28_" cx="425.2676" cy="445.0609" r="30.399" gradientUnits="userSpaceOnUse">
		<stop  offset="0" style="stop-color:#BE1E2D"/>
		<stop  offset="1" style="stop-color:#F7941D"/>
	</radialGradient>
	<circle class="st38" cx="425.3" cy="445.1" r="30.4"/>
	<radialGradient id="SVGID_29_" cx="403.9343" cy="461.0822" r="30.399" gradientUnits="userSpaceOnUse">
		<stop  offset="0" style="stop-color:#BE1E2D"/>
		<stop  offset="1" style="stop-color:#F7941D"/>
	</radialGradient>
	<circle class="st39" cx="403.9" cy="461.1" r="30.4"/>
	<radialGradient id="SVGID_30_" cx="432.6667" cy="597.0562" r="30.399" gradientUnits="userSpaceOnUse">
		<stop  offset="0" style="stop-color:#BE1E2D"/>
		<stop  offset="1" style="stop-color:#F7941D"/>
	</radialGradient>
	<circle class="st40" cx="432.7" cy="597.1" r="30.4"/>
	<radialGradient id="SVGID_31_" cx="593.5739" cy="496.6667" r="30.399" gradientUnits="userSpaceOnUse">
		<stop  offset="0" style="stop-color:#BE1E2D"/>
		<stop  offset="1" style="stop-color:#F7941D"/>
	</radialGradient>
	<circle class="st41" cx="593.6" cy="496.7" r="30.4"/>
	<radialGradient id="SVGID_32_" cx="586.4587" cy="536.2581" r="30.399" gradientUnits="userSpaceOnUse">
		<stop  offset="0" style="stop-color:#BE1E2D"/>
		<stop  offset="1" style="stop-color:#F7941D"/>
	</radialGradient>
	<circle class="st42" cx="586.5" cy="536.3" r="30.4"/>
	<radialGradient id="SVGID_33_" cx="596.1361" cy="576.1314" r="30.399" gradientUnits="userSpaceOnUse">
		<stop  offset="0" style="stop-color:#BE1E2D"/>
		<stop  offset="1" style="stop-color:#F7941D"/>
	</radialGradient>
	<circle class="st43" cx="596.1" cy="576.1" r="30.4"/>
	<radialGradient id="SVGID_34_" cx="496.3333" cy="524.8802" r="30.399" gradientUnits="userSpaceOnUse">
		<stop  offset="0" style="stop-color:#BE1E2D"/>
		<stop  offset="1" style="stop-color:#F7941D"/>
	</radialGradient>
	<circle class="st44" cx="496.3" cy="524.9" r="30.4"/>
	<radialGradient id="SVGID_35_" cx="534.0965" cy="455.7981" r="30.399" gradientUnits="userSpaceOnUse">
		<stop  offset="0" style="stop-color:#BE1E2D"/>
		<stop  offset="1" style="stop-color:#F7941D"/>
	</radialGradient>
	<circle class="st45" cx="534.1" cy="455.8" r="30.4"/>
	<radialGradient id="SVGID_36_" cx="473.9023" cy="465.1749" r="30.399" gradientUnits="userSpaceOnUse">
		<stop  offset="0" style="stop-color:#BE1E2D"/>
		<stop  offset="1" style="stop-color:#F7941D"/>
	</radialGradient>
	<circle class="st46" cx="473.9" cy="465.2" r="30.4"/>
	<radialGradient id="SVGID_37_" cx="546.7726" cy="515.3333" r="30.399" gradientUnits="userSpaceOnUse">
		<stop  offset="0" style="stop-color:#BE1E2D"/>
		<stop  offset="1" style="stop-color:#F7941D"/>
	</radialGradient>
	<circle class="st47" cx="546.8" cy="515.3" r="30.4"/>
	<radialGradient id="SVGID_38_" cx="509.8145" cy="491.4812" r="30.399" gradientUnits="userSpaceOnUse">
		<stop  offset="0" style="stop-color:#BE1E2D"/>
		<stop  offset="1" style="stop-color:#F7941D"/>
	</radialGradient>
	<circle class="st48" cx="509.8" cy="491.5" r="30.4"/>
</g>
<g id="Layer_4" class="st0">
	<linearGradient id="SVGID_39_" gradientUnits="userSpaceOnUse" x1="738.0822" y1="500.6667" x2="803.2512" y2="500.6667">
		<stop  offset="0" style="stop-color:#6B6C6F"/>
		<stop  offset="1" style="stop-color:#383839"/>
	</linearGradient>
	<circle class="st49" cx="770.7" cy="500.7" r="32.6"/>
	<polygon class="st9" points="854.3,602.3 836.3,596.7 833,500.7 836.3,404.7 854.3,399 858.3,399 860,500.7 858.3,602.3 	"/>
	<circle class="st2" cx="773.7" cy="500.7" r="18.7"/>
	<circle class="st3" cx="773.7" cy="500.7" r="7.3"/>
	<line class="st3" x1="773.7" y1="493.3" x2="773.7" y2="482"/>
	<line class="st3" x1="768.5" y1="495.5" x2="760.5" y2="487.5"/>
	<line class="st3" x1="766.3" y1="500.7" x2="755" y2="500.7"/>
	<line class="st3" x1="768.5" y1="505.9" x2="760.5" y2="513.9"/>
	<line class="st3" x1="773.7" y1="508" x2="773.7" y2="519.3"/>
	<line class="st3" x1="778.9" y1="505.9" x2="786.9" y2="513.9"/>
	<line class="st3" x1="781" y1="500.7" x2="792.3" y2="500.7"/>
	<line class="st3" x1="778.9" y1="495.5" x2="786.9" y2="487.5"/>
	<path class="st10" d="M800.5,487.6c1.7,4,2.7,8.4,2.7,13c0,4.6-1,9-2.7,13l18.4-3.8l3.3-4l16,2.1l-2,88.7l6.3-68.7l11.7,74.3
		l-7.6-98.9l7.5-2.8l-7.4-3.5l7.6-98.2l-11.7,74.3l-6.3-68.7l2,88.7l-16,2.1l-3.3-4L800.5,487.6z"/>
	<polyline class="st11" points="854.3,399 856,500.7 854.3,602.3 	"/>
	<path class="st12" d="M707.7,493.3h11.5l23.7-9.2c0,0,2.9,13.9,0,33l-23.7-9.2h-11.5"/>
	<g class="st13">
		<polygon class="st14" points="702.9,602.3 684.9,596.7 681.6,500.7 684.9,404.7 702.9,399 706.9,399 708.6,500.7 706.9,602.3 		
			"/>
		<polyline class="st15" points="702.9,399 704.6,500.7 702.9,602.3 		"/>
	</g>
	<polygon class="st16" points="686.2,503 684.2,596.7 690.5,528 702.2,602.3 694.6,503.5 702.1,500.7 694.7,497.2 702.2,399 
		690.5,473.3 684.2,404.7 686.2,497.3 682.9,500.7 	"/>
	<path class="st3" d="M719.2,493.3c0,0,2.4,5.3,0,14.7"/>
	<path class="st3" d="M838.3,493.3c0,0,3.5,5.8,0,14.7"/>
	<path class="st3" d="M822.3,495.5c0,0,1,0.7,0,10.4"/>
</g>
</svg>
