<?xml version="1.0" encoding="utf-8"?>
<!-- Generator: Adobe Illustrator 20.0.0, SVG Export Plug-In . SVG Version: 6.00 Build 0)  -->
<svg version="1.1" id="Left_Upper" xmlns="http://www.w3.org/2000/svg" xmlns:xlink="http://www.w3.org/1999/xlink" x="0px" y="0px"
	 viewBox="0 0 500 500" style="enable-background:new 0 0 500 500;" xml:space="preserve">
<style type="text/css">
	.st0{fill:#A7A9AC;stroke:#000000;stroke-miterlimit:10;}
	.st1{fill:url(#SVGID_1_);stroke:#000000;stroke-miterlimit:10;}
	.st2{fill:none;stroke:#000000;stroke-miterlimit:10;}
</style>
<circle class="st0" cx="93.2" cy="152.2" r="7"/>
<path class="st0" d="M78.7,149.1h15c0,0,2,0.2,2,3.1c0,2.8-2,3.1-2,3.1H80.8"/>
<polygon class="st0" points="246.6,250.7 39.9,171.3 42.1,167.7 53.4,162.8 181.4,198.8 254,234.9 "/>
<line class="st0" x1="42.1" y1="167.7" x2="248.4" y2="246.9"/>
<polyline class="st0" points="183.1,200.7 144.2,201.2 153.9,205 "/>
<circle class="st0" cx="200.2" cy="200.7" r="17.2"/>
<path class="st0" d="M197.5,183.7c-8.2,1.3-14.4,8.4-14.4,16.9c0,9.5,7.7,17.2,17.2,17.2l11.6-2c9.1-2.6,14.3-12.2,11.7-21.3
	s-12.2-14.3-21.3-11.7L197.5,183.7L197.5,183.7z"/>
<radialGradient id="SVGID_1_" cx="546.8827" cy="200.6893" r="13.9769" gradientTransform="matrix(-1 0 0 1 747.1085 0)" gradientUnits="userSpaceOnUse">
	<stop  offset="0" style="stop-color:#FFFFFF"/>
	<stop  offset="0.3132" style="stop-color:#FBB040"/>
	<stop  offset="1" style="stop-color:#EF4136"/>
</radialGradient>
<circle class="st1" cx="200.2" cy="200.7" r="14"/>
<circle class="st2" cx="200.2" cy="200.7" r="4.3"/>
<line class="st0" x1="200.2" y1="196.4" x2="200.2" y2="186.7"/>
<line class="st0" x1="202.4" y1="197" x2="207.2" y2="188.6"/>
<line class="st0" x1="204" y1="198.5" x2="212.3" y2="193.7"/>
<line class="st0" x1="204.5" y1="200.7" x2="214.2" y2="200.7"/>
<line class="st0" x1="204" y1="202.8" x2="212.3" y2="207.7"/>
<line class="st0" x1="202.4" y1="204.4" x2="207.2" y2="212.8"/>
<line class="st0" x1="200.2" y1="205" x2="200.2" y2="214.7"/>
<line class="st0" x1="198.1" y1="204.4" x2="193.2" y2="212.8"/>
<line class="st0" x1="196.5" y1="202.8" x2="188.1" y2="207.7"/>
<line class="st0" x1="195.9" y1="200.7" x2="186.2" y2="200.7"/>
<line class="st0" x1="196.5" y1="198.5" x2="188.1" y2="193.7"/>
<line class="st0" x1="198.1" y1="197" x2="193.2" y2="188.6"/>
<circle class="st0" cx="53.4" cy="155.2" r="7.6"/>
<path class="st0" d="M70.9,165.2c5.5,0,9.9-4.4,9.9-9.9s-4.4-9.9-9.9-9.9H53.4c-5.5,0-9.9,4.4-9.9,9.9s4.4,9.9,9.9,9.9H70.9z"/>
<circle class="st0" cx="53.4" cy="155.2" r="9.9"/>
<circle class="st0" cx="53.4" cy="155.2" r="1.5"/>
</svg>
