<?xml version="1.0" encoding="utf-8"?>
<!-- Generator: Adobe Illustrator 20.0.0, SVG Export Plug-In . SVG Version: 6.00 Build 0)  -->
<svg version="1.1" id="Right_Lower" xmlns="http://www.w3.org/2000/svg" xmlns:xlink="http://www.w3.org/1999/xlink" x="0px"
	 y="0px" viewBox="0 0 500 500" style="enable-background:new 0 0 500 500;" xml:space="preserve">
<style type="text/css">
	.st0{fill:#A7A9AC;stroke:#000000;stroke-miterlimit:10;}
	.st1{fill:url(#SVGID_1_);stroke:#000000;stroke-miterlimit:10;}
	.st2{fill:none;stroke:#000000;stroke-miterlimit:10;}
</style>
<g>
	<ellipse transform="matrix(0.5 -0.866 0.866 0.5 -32.5745 526.6855)" class="st0" cx="439.8" cy="291.6" rx="7" ry="7"/>
	<path class="st0" d="M453.9,296.1l-13-7.5c0,0-1.9-0.8-3.3,1.7c-1.4,2.5,0.2,3.7,0.2,3.7l11.1,6.4"/>
	<ellipse transform="matrix(0.5 -0.866 0.866 0.5 -35.6578 566.4497)" class="st0" cx="472.7" cy="314.1" rx="7.6" ry="7.6"/>
	<path class="st0" d="M452.6,314c-4.8-2.7-6.4-8.8-3.6-13.6s8.8-6.4,13.6-3.6l15.2,8.8c4.8,2.7,6.4,8.8,3.6,13.6s-8.8,6.4-13.6,3.6
		L452.6,314z"/>
	<ellipse transform="matrix(0.5 -0.866 0.866 0.5 -35.6578 566.4497)" class="st0" cx="472.7" cy="314.1" rx="9.9" ry="9.9"/>
	<ellipse transform="matrix(0.5 -0.866 0.866 0.5 -35.6578 566.4497)" class="st0" cx="472.7" cy="314.1" rx="1.5" ry="1.5"/>
</g>
<ellipse transform="matrix(0.5 -0.866 0.866 0.5 -99.9544 422.8632)" class="st0" cx="316.2" cy="298" rx="17.2" ry="17.2"/>
<path class="st0" d="M327.1,284.7c6.4,5.2,8.3,14.5,4,21.9c-4.7,8.2-15.2,11-23.5,6.3l-9.1-7.5c-6.6-6.8-6.3-17.7,0.5-24.3
	s17.7-6.3,24.3,0.5L327.1,284.7L327.1,284.7z"/>
<radialGradient id="SVGID_1_" cx="313.1786" cy="180.3339" r="13.9769" gradientTransform="matrix(0.866 0.5 -0.5 0.866 135.1794 -14.7684)" gradientUnits="userSpaceOnUse">
	<stop  offset="0" style="stop-color:#FFFFFF"/>
	<stop  offset="0.3132" style="stop-color:#FBB040"/>
	<stop  offset="1" style="stop-color:#EF4136"/>
</radialGradient>
<circle class="st1" cx="316.2" cy="298" r="14"/>
<ellipse transform="matrix(0.5 -0.866 0.866 0.5 -99.9544 422.8632)" class="st2" cx="316.2" cy="298" rx="4.3" ry="4.3"/>
<line class="st0" x1="318.4" y1="294.3" x2="323.2" y2="285.9"/>
<line class="st0" x1="316.2" y1="293.7" x2="316.2" y2="284"/>
<line class="st0" x1="314.1" y1="294.3" x2="309.2" y2="285.9"/>
<line class="st0" x1="312.5" y1="295.8" x2="304.1" y2="291"/>
<line class="st0" x1="311.9" y1="298" x2="302.3" y2="298"/>
<line class="st0" x1="312.5" y1="300.1" x2="304.1" y2="305"/>
<line class="st0" x1="314.1" y1="301.7" x2="309.2" y2="310.1"/>
<line class="st0" x1="316.2" y1="302.3" x2="316.2" y2="312"/>
<line class="st0" x1="318.4" y1="301.7" x2="323.2" y2="310.1"/>
<line class="st0" x1="320" y1="300.1" x2="328.3" y2="305"/>
<line class="st0" x1="320.5" y1="298" x2="330.2" y2="298"/>
<line class="st0" x1="320" y1="295.8" x2="328.3" y2="291"/>
<polygon class="st0" points="254,269.2 485.2,308.3 485.1,304.1 477.7,294.2 348.9,261.4 260.1,252.6 "/>
<line class="st0" x1="255.4" y1="265.2" x2="485.1" y2="304.1"/>
<polyline class="st2" points="348.9,261.4 359.7,276.3 324.8,271.3 "/>
</svg>
