<?xml version="1.0" encoding="utf-8"?>
<!-- Generator: Adobe Illustrator 20.0.0, SVG Export Plug-In . SVG Version: 6.00 Build 0)  -->
<svg version="1.1" id="Right_Upper" xmlns="http://www.w3.org/2000/svg" xmlns:xlink="http://www.w3.org/1999/xlink" x="0px"
	 y="0px" viewBox="0 0 500 500" style="enable-background:new 0 0 500 500;" xml:space="preserve">
<style type="text/css">
	.st0{fill:#A7A9AC;stroke:#000000;stroke-miterlimit:10;}
	.st1{fill:url(#SVGID_1_);stroke:#000000;stroke-miterlimit:10;}
	.st2{fill:none;stroke:#000000;stroke-miterlimit:10;}
</style>
<circle class="st0" cx="414.7" cy="152.2" r="7"/>
<path class="st0" d="M429.2,149.1h-15c0,0-2,0.2-2,3.1c0,2.8,2,3.1,2,3.1h12.8"/>
<polygon class="st0" points="261.4,250 468,171.3 465.8,167.7 454.5,162.8 326.5,198.8 254,234.2 "/>
<line class="st0" x1="259.6" y1="246.2" x2="465.8" y2="167.7"/>
<polyline class="st0" points="324.8,200.7 363.7,201.2 354,205 "/>
<circle class="st0" cx="307.7" cy="200.7" r="17.2"/>
<path class="st0" d="M310.4,183.7c8.2,1.3,14.4,8.4,14.4,16.9c0,9.5-7.7,17.2-17.2,17.2l-11.6-2c-9.1-2.6-14.3-12.2-11.7-21.3
	c2.6-9.1,12.2-14.3,21.3-11.7L310.4,183.7L310.4,183.7z"/>
<radialGradient id="SVGID_1_" cx="307.6667" cy="200.6893" r="13.9769" gradientUnits="userSpaceOnUse">
	<stop  offset="0" style="stop-color:#FFFFFF"/>
	<stop  offset="0.3132" style="stop-color:#FBB040"/>
	<stop  offset="1" style="stop-color:#EF4136"/>
</radialGradient>
<circle class="st1" cx="307.7" cy="200.7" r="14"/>
<circle class="st2" cx="307.7" cy="200.7" r="4.3"/>
<line class="st0" x1="307.7" y1="196.4" x2="307.7" y2="186.7"/>
<line class="st0" x1="305.5" y1="197" x2="300.7" y2="188.6"/>
<line class="st0" x1="303.9" y1="198.5" x2="295.6" y2="193.7"/>
<line class="st0" x1="303.4" y1="200.7" x2="293.7" y2="200.7"/>
<line class="st0" x1="303.9" y1="202.8" x2="295.6" y2="207.7"/>
<line class="st0" x1="305.5" y1="204.4" x2="300.7" y2="212.8"/>
<line class="st0" x1="307.7" y1="205" x2="307.7" y2="214.7"/>
<line class="st0" x1="309.8" y1="204.4" x2="314.7" y2="212.8"/>
<line class="st0" x1="311.4" y1="202.8" x2="319.8" y2="207.7"/>
<line class="st0" x1="312" y1="200.7" x2="321.6" y2="200.7"/>
<line class="st0" x1="311.4" y1="198.5" x2="319.8" y2="193.7"/>
<line class="st0" x1="309.8" y1="197" x2="314.7" y2="188.6"/>
<circle class="st0" cx="454.5" cy="155.2" r="7.6"/>
<path class="st0" d="M437,165.2c-5.5,0-9.9-4.4-9.9-9.9s4.4-9.9,9.9-9.9h17.5c5.5,0,9.9,4.4,9.9,9.9s-4.4,9.9-9.9,9.9H437z"/>
<circle class="st0" cx="454.5" cy="155.2" r="9.9"/>
<circle class="st0" cx="454.5" cy="155.2" r="1.5"/>
</svg>
